<?xml version="1.0" encoding="UTF-8"?>
<svg width="512" height="512" viewBox="0 0 512 512" xmlns="http://www.w3.org/2000/svg" role="img" aria-label="PrimeFinds logo">
  <defs>
    <linearGradient id="pf_navy" x1="0" y1="0" x2="1" y2="1">
      <stop offset="0" stop-color="#0b2540"/>
      <stop offset="1" stop-color="#103b63"/>
    </linearGradient>
    <linearGradient id="pf_gold" x1="0" y1="0" x2="1" y2="1">
      <stop offset="0" stop-color="#c59f45"/>
      <stop offset="1" stop-color="#f0c45a"/>
    </linearGradient>
    <filter id="pf_shadow" x="-20%" y="-20%" width="140%" height="140%">
      <feDropShadow dx="0" dy="6" stdDeviation="8" flood-color="#000" flood-opacity="0.18"/>
    </filter>
  </defs>

  <!-- Simple "P" monogram inspired mark + upward arrow -->
  <g filter="url(#pf_shadow)">
    <!-- P stem -->
    <path d="M168 112c0-13.3 10.7-24 24-24h88c60.8 0 104 39.9 104 96.5 0 56.9-43.2 96.5-104 96.5h-64v59c0 13.3-10.7 24-24 24h-0c-13.3 0-24-10.7-24-24V112z"
          fill="url(#pf_navy)"/>

    <!-- P bowl cutout -->
    <path d="M216 136h64c35.5 0 56 22.5 56 48.5S315.5 233 280 233h-64V136z" fill="#ffffff" opacity="0.92"/>

    <!-- Arrow (gold) -->
    <path d="M142 278c-8.9 8.8-9 23.1-0.1 32l0.1 0.1c8.8 8.9 23.1 9 32 0.1l66.8-66.1 39.4 39.3c-5.7 5.6-5.8 14.8-0.1 20.5l0.1 0.1c5.6 5.7 14.8 5.8 20.5 0.1l47.8-47.3c5.7-5.6 5.8-14.8 0.1-20.5l-0.1-0.1c-5.6-5.7-14.8-5.8-20.5-0.1l-11.7 11.6-59.6-59.4c-8.8-8.8-23-8.8-31.8 0L142 278z"
          fill="url(#pf_gold)"/>
  </g>
</svg>
